<svg width="48" height="27" viewBox="0 0 48 27" fill="none" xmlns="http://www.w3.org/2000/svg">
<path d="M5.90423 0H4.11838V1.77977H5.90423V0ZM3.88756 0H2.10171V1.77977H3.88756V0ZM6.21402 1.77977H7.99987V0H6.21402V1.77977ZM10.0165 0H8.2307V1.77977H10.0165V0ZM12.1122 0H10.3263V1.77977H12.1122V0ZM16.2306 0H14.4447V1.77977H16.2306V0ZM2.09564 3.79645H3.88149V2.01667H2.09564V3.79645ZM0 5.89208H1.78585V4.11231H0V5.89208ZM2.09564 5.89208H3.88149V4.11231H2.09564V5.89208ZM0 7.90876H1.78585V6.12898H0V7.90876ZM2.09564 7.90876H3.88149V6.12898H2.09564V7.90876ZM0 10.0044H1.78585V8.22462H0V10.0044ZM2.09564 10.0044H3.88149V8.22462H2.09564V10.0044ZM0 12.0211H1.78585V10.2413H0V12.0211ZM2.09564 12.0211H3.88149V10.2413H2.09564V12.0211ZM0 14.1167H1.78585V12.3369H0V14.1167ZM2.09564 14.1167H3.88149V12.3369H2.09564V14.1167ZM0 16.1334H1.78585V14.3536H0V16.1334ZM2.09564 16.1334H3.88149V14.3536H2.09564V16.1334ZM4.11231 14.1167H5.89816V12.3369H4.11231V14.1167ZM4.11231 16.1334H5.89816V14.3536H4.11231V16.1334ZM6.20795 14.1167H7.9938V12.3369H6.20795V14.1167ZM6.20795 16.1334H7.9938V14.3536H6.20795V16.1334ZM8.22462 14.1167H10.0105V12.3369H8.22462V14.1167ZM8.22462 16.1334H10.0105V14.3536H8.22462V16.1334ZM10.3203 14.1167H12.1061V12.3369H10.3203V14.1167ZM10.3203 16.1334H12.1061V14.3536H10.3203V16.1334ZM14.4386 14.1167H16.2245V12.3369H14.4386V14.1167ZM0 18.2169H1.78585V16.4371H0V18.2169ZM0 20.2335H1.78585V18.4538H0V20.2335ZM2.09564 18.2169H3.88149V16.4371H2.09564V18.2169ZM4.11231 3.80252H5.89816V2.02275H4.11231V3.80252ZM6.20795 3.80252H7.9938V2.02275H6.20795V3.80252ZM8.22462 3.80252H10.0105V2.02275H8.22462V3.80252ZM10.3203 3.80252H12.1061V2.02275H10.3203V3.80252ZM12.3369 1.78585H14.1228V0H12.3369V1.77977V1.78585ZM12.3369 14.1106H14.1228V12.3309H12.3369V14.1106ZM12.3369 3.80252H14.1228V2.02275H12.3369V3.80252ZM14.4326 3.80252H16.2184V2.02275H14.4326V3.80252ZM16.4492 3.80252H18.2351V2.02275H16.4492V3.80252ZM14.4326 5.89816H16.2184V4.11838H14.4326V5.89816ZM16.4492 5.89816H18.2351V4.11838H16.4492V5.89816ZM18.5449 4.11838V5.89816H20.3307V4.11838H18.5449ZM16.4492 7.91483H18.2351V6.13506H16.4492V7.91483ZM18.5449 7.91483H20.3307V6.13506H18.5449V7.91483ZM16.4492 10.0105H18.2351V8.2307H16.4492V10.0105ZM18.5449 10.0105H20.3307V8.2307H18.5449V10.0105ZM16.4492 12.0271H18.2351V10.2474H16.4492V12.0271ZM16.4492 14.1228H18.2351V12.343H16.4492V14.1228ZM14.4326 12.0271H16.2184V10.2474H14.4326V12.0271ZM18.551 12.0271H20.3368V10.2474H18.551V12.0271ZM24.3762 7.9209H26.1621V6.14113H24.3762V7.9209ZM24.3762 10.0165H26.1621V8.23677H24.3762V10.0165ZM24.3762 12.0332H26.1621V10.2534H24.3762V12.0332ZM24.3762 14.1289H26.1621V12.3491H24.3762V14.1289ZM24.3762 16.1455H26.1621V14.3658H24.3762V16.1455ZM26.4719 5.91638H28.2577V4.13661H26.4719V5.91638ZM26.4719 3.82074H28.2577V2.04097H26.4719V3.82074ZM28.4885 5.91638H30.2744V4.13661H28.4885V5.91638ZM28.4885 3.82074H30.2744V2.04097H28.4885V3.82074ZM32.37 2.04097H30.5842V3.82074H32.37V2.04097ZM30.5842 1.81015H32.37V0H30.5842V1.77977V1.81015ZM32.6008 3.82682H34.3867V2.04704H32.6008V3.82682ZM32.6008 1.81015H34.3867V0H32.6008V1.77977V1.81015ZM34.6965 3.82682H36.4823V2.04704H34.6965V3.82682ZM36.4823 0.0303715H34.6965V1.81015H36.4823V0V0.0303715ZM38.499 2.04704H36.7132V3.82682H38.499V2.04704ZM36.7132 1.81622H38.499V0H36.7132V1.77977V1.81622ZM26.4658 7.93913H28.2516V6.15935H26.4658V7.93913ZM26.4658 10.0348H28.2516V8.25499H26.4658V10.0348ZM26.4658 12.0514H28.2516V10.2717H26.4658V12.0514ZM34.6965 10.0348H36.4823V8.25499H34.6965V10.0348ZM34.6965 12.0514H36.4823V10.2717H34.6965V12.0514ZM38.499 8.25499H36.7132V10.0348H38.499V8.25499ZM38.499 10.2717H36.7132V12.0514H38.499V10.2717ZM38.8088 10.0408H40.5946V8.26107H38.8088V10.0408ZM38.8088 12.0575H40.5946V10.2777H38.8088V12.0575ZM38.8088 16.1637H40.5946V14.384H38.8088V16.1637ZM40.8255 10.0408H42.6113V8.26107H40.8255V10.0408ZM40.8255 12.0575H42.6113V10.2777H40.8255V12.0575ZM38.8088 3.83897H40.5946V2.05919H38.8088V3.83897ZM38.8088 5.9346H40.5946V4.15483H38.8088V5.9346ZM40.8255 3.83897H42.6113V2.05919H40.8255V3.83897ZM40.8255 5.9346H42.6113V4.15483H40.8255V5.9346ZM26.4597 14.1531H28.2456V12.3734H26.4597V14.1531ZM26.4597 16.1698H28.2456V14.39H26.4597V16.1698ZM28.4764 16.1698H30.2622V14.39H28.4764V16.1698ZM28.4764 18.2655H30.2622V16.4857H28.4764V18.2655ZM28.4764 20.2821H30.2622V18.5024H28.4764V20.2821ZM32.3579 16.4857H30.572V18.2655H32.3579V16.4857ZM30.572 20.2821H32.3579V18.5024H30.572V20.2821ZM32.5887 18.2655H34.3745V16.4857H32.5887V18.2655ZM32.5887 20.2821H34.3745V18.5024H32.5887V20.2821ZM34.6843 18.2655H36.4702V16.4857H34.6843V18.2655ZM34.6843 20.2821H36.4702V18.5024H34.6843V20.2821ZM38.4869 16.4857H36.701V18.2655H38.4869V16.4857ZM36.701 20.2821H38.4869V18.5024H36.701V20.2821ZM38.7966 18.2655H40.5825V16.4857H38.7966V18.2655ZM40.8133 18.2655H42.5992V16.4857H40.8133V18.2655ZM40.8133 14.1592H42.5992V12.3795H40.8133V14.1592ZM40.8133 16.1759H42.5992V14.3961H40.8133V16.1759ZM42.909 10.2838V12.0636H44.6948V10.2838H42.909ZM42.909 14.1592H44.6948V12.3795H42.909V14.1592ZM2.01667 22.7847H0V26.0406H0.777512V24.8014H2.02275V24.4127H2.4115V23.1735H2.02275V22.7847H2.01667ZM1.62792 24.0239H0.771438V23.6352H1.62792V24.0239ZM4.88982 22.7847H3.26191V23.1735H2.87315V25.6518H3.26191V26.0406H4.88982V25.6518H5.27858V23.1735H4.88982V22.7847ZM4.50107 25.2631H3.64459V23.6352H4.50107V25.2631ZM7.76297 23.1674H8.15173V24.0178H7.29525V23.6291H6.43877V25.257H7.29525V24.8682H8.15173V25.7186H7.76297V26.1074L6.13506 26.0284V25.6397H5.7463V23.1614H6.13506V22.7726H7.76297V23.1614V23.1674ZM10.3263 22.7787H11.1828V24.0178H10.7941V24.8682H11.1828V26.1074H10.3263V24.8682H9.46986V26.1074L8.61338 26.0284V22.7726H9.46986V24.0118H10.3263V22.7726V22.7787ZM11.4926 22.7787H13.977V23.6291H12.3491V24.0178H13.5943V24.8682H12.3491V25.257H13.977V26.1074L11.4926 26.0284V22.7726V22.7787ZM14.3658 22.6997H16.8501V23.5501H15.9937V26.0284H15.2162V23.5501H14.3597V22.6997H14.3658ZM19.3345 24.0178H20.5798V25.6458H20.191V26.0345H18.4841V25.6458H18.0954V23.1674H18.4841V22.7787H20.1121V23.6291H18.8668V25.257H19.7233V24.8682H19.3345V24.0178ZM22.9062 22.7787H21.2783V23.1674H20.8896V26.0345H21.5881V25.1841H22.4446V26.0345H23.3011V23.1674H22.9123V22.7787H22.9062ZM22.5965 24.4066H21.74V23.5562H22.5965V24.4066ZM26.0892 22.7787H26.4779V26.0345H25.6215V24.7953H25.2327V25.1841H24.8439V24.7953H24.4552V26.0345H23.7566V22.7787H24.1454V23.1674H24.5342V23.5562H24.9229V23.9449H25.3117V23.5562H25.7004V23.1674H26.0892V22.7787ZM27.0975 22.7787H29.5819V23.6291H27.9479V24.0178H29.1932V24.8682H27.9479V25.257H29.5819V26.1074L27.0975 26.0284V22.7726V22.7787ZM30.3594 22.7787H32.3761V23.6291H30.7482V24.0178H31.9934V24.4066H32.3822V25.6458H31.9934V26.0345H29.9767V25.1841H31.6047V24.7953H30.3594V24.4066H29.9707V23.1674H30.3594V22.7787ZM34.0101 22.7787H36.0268V23.6291H34.3928V24.0178H35.638V24.4066H36.0268V25.6458H35.638V26.0345H33.6213V25.1841H35.2553V24.7953H34.0101V24.4066H33.6213V23.1674H34.0101V22.7787ZM38.5172 22.7787H36.8893V23.1674H36.5006V25.6458H36.8893V26.0345H38.5172V25.6458H38.906V23.1674H38.5172V22.7787ZM38.1285 25.257H37.272V23.6291H38.1285V25.257ZM39.3737 22.7787H41.8581V23.6291H40.2302V24.0178H41.4693V24.8682H40.2302V26.1074L39.3737 26.0284V22.7726V22.7787ZM42.1679 22.6997H44.6523V23.5501H43.7958V26.0284H43.0183V23.5501H42.1618V22.6997H42.1679ZM45.5088 22.7787H46.4381V23.0095H46.1283V24.1697H45.8975V23.0095H45.5088V22.7787ZM47.9932 22.7787V24.1758H47.7623V23.2464L47.4525 23.866H47.2217L46.833 23.1674V24.1758H46.6021V22.7787H46.833L47.3007 23.708L47.7684 22.7787H47.9992H47.9932Z" fill="#D9D9D9"/>
</svg>
