<svg width="60" height="26" viewBox="0 0 60 26" fill="none" xmlns="http://www.w3.org/2000/svg">
<path d="M9.61619 4.79506C9.61619 9.8529 9.53823 14.9851 9.53823 20.043C9.53823 20.043 9.46028 21.0843 8.135 21.0843V22.8694C8.135 22.8694 14.8393 23.9107 15.7748 19.1504L16.0867 4.86944C16.5544 4.86944 17.1001 4.86944 17.5679 4.86944C17.5679 4.34878 17.5679 3.9025 17.5679 3.38184C14.1377 3.38184 10.7076 3.38184 7.27747 3.38184V4.72068H9.14845C9.30436 4.79506 9.46027 4.79506 9.61619 4.79506Z" fill="#D9D9D9"/>
<path d="M5.71719 21.2323L7.19839 21.4554V22.7943C6.96451 22.8686 5.09353 23.1662 3.45643 21.9761C1.97524 20.8604 1.74136 19.3728 1.74136 18.8521C1.66341 18.2571 1.58545 16.9926 2.52094 16.0257C3.37847 15.1331 4.54783 15.1331 4.85966 15.1331C5.24945 15.1331 6.41881 15.0587 7.3543 15.8769C8.28979 16.7695 8.21183 17.9596 8.21183 18.1827C8.21183 18.4058 8.13388 19.1496 7.51022 19.8191C6.8086 20.5629 5.87311 20.6372 5.63924 20.6372L5.71719 21.2323Z" fill="#D9D9D9"/>
<path d="M29.1051 4.86944V3.38184H19.7502V4.86944H21.3093V21.4562H18.9706V23.0182H29.1051V21.4562H27.5459L27.6239 4.86944H29.1051Z" fill="#D9D9D9"/>
<path d="M57.1695 4.86944V3.38184H47.8146V4.86944H49.3738V21.4562H47.035V23.0182H57.1695V21.4562H55.6104L55.6883 4.86944H57.1695Z" fill="#D9D9D9"/>
<path d="M41.5766 3.38184V4.86944H40.0174V23.0182H31.3641L31.4421 21.4562H33.0012V4.86944H31.4421L31.52 3.38184H41.5766Z" fill="#D9D9D9"/>
<path d="M40.7992 21.4553C41.4229 21.2322 42.2024 20.7859 42.982 20.1165C45.3987 18.1082 45.7105 15.4306 46.1003 15.5049C46.4121 15.5793 46.5681 17.0669 46.1003 23.0173H40.7992V21.4553Z" fill="#D9D9D9"/>
</svg>
