<svg width="48" height="27" viewBox="0 0 48 27" fill="none" xmlns="http://www.w3.org/2000/svg">
<g clip-path="url(#clip0_1724_1325)">
<path d="M9.70213 2.78528L12.5106 6.08706L8.51064 20.062C8.51064 20.062 7.31915 23.9013 2.7234 22.212L0 25.3602C0 25.3602 8.42553 28.9692 12.2553 21.0603L17.617 2.7085L9.70213 2.78528ZM48 7.85313C48 7.85313 48.2553 3.01564 42.0426 2.7085L18.0426 2.78528L20.8511 6.08706L16.3404 20.9835H39.5745C39.5745 20.9835 46.1277 20.5995 46.7234 15.1478C46.7234 15.1478 46.8936 13.2281 45.5319 11.9228C45.5319 11.9996 48.0851 9.92634 48 7.85313ZM21.3617 17.5281L24.766 6.01028H27.9149C35.4043 6.24063 32.0851 12.5371 32.0851 12.5371C29.5319 18.7567 21.3617 17.5281 21.3617 17.5281ZM42.8085 15.3013C42.8085 15.3013 42.8085 17.2978 39.3192 17.6049H32.5106C32.5106 17.6049 34.7234 15.8388 35.4894 13.5353H41.3617C41.3617 13.5353 43.0638 13.8424 42.8085 15.3013ZM44.0851 7.85313C43.9149 10.0799 41.3617 10.1567 41.3617 10.1567H36.4255C36.6809 7.16206 35.5745 6.08706 35.5745 6.08706L41.8723 6.01028C44.0851 6.24063 44.0851 7.85313 44.0851 7.85313Z" fill="#D9D9D9"/>
</g>
<defs>
<clipPath id="clip0_1724_1325">
<rect width="48" height="26.1818" fill="white"/>
</clipPath>
</defs>
</svg>
