<svg width="52" height="38" viewBox="0 0 52 38" fill="none" xmlns="http://www.w3.org/2000/svg">
<g clip-path="url(#clip0_1724_1313)">
<path d="M0 27.8364H6.72909V29.4051H1.72013V31.6805H5.05944V33.2492H1.77061V35.777H6.931V37.3457H0V27.8364Z" fill="#D9D9D9"/>
<path d="M6.27051 30.3642H8.14207L9.81173 35.2217L11.3299 30.3642H13.151L10.6233 37.3457H8.90312L6.27439 30.3642H6.27051ZM13.151 33.8044C13.151 32.892 13.5044 31.9834 14.1645 31.3271C14.8207 30.6709 15.6827 30.3137 16.5913 30.3137C17.4999 30.3137 18.3619 30.667 19.0181 31.3271C19.321 31.63 19.5734 32.0338 19.7753 32.4415C19.9267 32.8454 20.0277 33.2997 20.0277 33.7578C20.0277 34.216 19.9772 34.6703 19.7753 35.1246C19.6239 35.5789 19.3715 35.9323 19.0181 36.2895C18.7153 36.5924 18.3114 36.8952 17.8532 37.0467C17.4494 37.1981 16.9408 37.2991 16.4865 37.2991C14.5139 37.2991 13.1472 35.8818 13.1472 33.8083L13.151 33.8044ZM18.261 33.851C18.261 32.5347 17.6552 31.7271 16.6418 31.7271C15.6283 31.7271 14.9721 32.4843 14.9721 33.8006V33.851C14.9721 35.1169 15.5779 35.874 16.5913 35.874C17.6047 35.874 18.261 35.1169 18.261 33.851ZM20.6373 27.8325H22.5089V37.3418H20.6373V27.8325ZM23.7747 34.4607V30.3642H25.3939V34.3597C25.3939 35.2722 25.7977 35.8274 26.5083 35.8274C27.3664 35.8274 27.7236 35.0198 27.7236 33.8549V30.3642H29.3428V37.1942H27.7236V36.2313C27.5722 36.5846 27.3198 36.8875 27.0169 37.0894C26.7141 37.2913 26.3607 37.3923 26.0035 37.3418C24.6367 37.2913 23.7786 36.2274 23.7786 34.4568L23.7747 34.4607ZM31.1095 35.5285V32.0377H30.0456V30.6205H31.1095V29.3546L32.9811 28.3917V30.6166H34.4488V32.0338H32.9811V35.3731C32.9811 35.676 33.1325 35.8274 33.5363 35.8274H34.3945V37.2952H32.8762C31.459 37.2447 31.1056 36.639 31.1056 35.5246H31.1095V35.5285ZM35.0546 27.8442H36.9261V29.5643H35.0546V27.8442ZM35.105 30.5234H36.9261V37.3029H35.105V30.5234ZM37.5823 33.8122C37.5823 32.8997 37.9357 31.9911 38.5958 31.3349C39.252 30.6787 40.114 30.3215 41.0226 30.3215C41.9312 30.3215 42.7932 30.6748 43.4494 31.3349C43.7523 31.6378 44.0047 32.0416 44.2066 32.4493C44.358 32.8531 44.459 33.3074 44.459 33.7656C44.459 34.4723 44.3075 35.1829 43.9037 35.7381C43.4999 36.3439 42.9912 36.7516 42.335 37.0544C41.9312 37.2059 41.4225 37.3068 40.9682 37.3068C38.9452 37.3068 37.5785 35.8896 37.5785 33.8161L37.5823 33.8122ZM42.6418 33.8588C42.6418 32.5425 42.036 31.7349 40.9721 31.7349C39.9082 31.7349 39.3025 32.492 39.3025 33.8083V33.8588C39.3025 35.1246 39.9082 35.8818 40.9216 35.8818C41.9856 35.8818 42.6418 35.1246 42.6418 33.8588ZM45.7287 30.5195H47.5498V31.6339C47.7012 31.2301 48.0041 30.9272 48.3574 30.6709C48.7108 30.469 49.1651 30.3176 49.5728 30.3681C51.091 30.3681 51.9996 31.3815 51.9996 33.2531V37.3495H50.1785V33.3035C50.1785 32.3406 49.8252 31.8863 48.9632 31.8863C48.1012 31.8863 47.5459 32.593 47.5459 33.8588V37.2991H45.7248V30.5195H45.7287Z" fill="#D9D9D9"/>
<path d="M33.6456 24.586C33.7543 24.586 33.7543 24.4772 33.8592 24.4772V23.8327C33.8592 23.724 33.7504 23.724 33.7504 23.724C33.6417 23.6152 33.4282 23.6152 33.3194 23.6152H32.8884V25.0131H33.102V24.5821H33.3156L33.6378 25.1179H33.9601L33.6378 24.5821L33.6456 24.586ZM33.432 24.2637H33.2185V23.8327H33.6495C33.6495 23.8327 33.7582 23.8327 33.7582 23.9414V24.155L33.6495 24.2637C33.5835 24.1899 33.5097 24.1899 33.4359 24.2637H33.432Z" fill="#D9D9D9"/>
<path d="M33.6456 24.586C33.7543 24.586 33.7543 24.4772 33.8592 24.4772V23.8327C33.8592 23.724 33.7504 23.724 33.7504 23.724C33.6417 23.6152 33.4282 23.6152 33.3194 23.6152H32.8884V25.0131H33.102V24.5821H33.3156L33.6378 25.1179H33.9601L33.6378 24.5821L33.6456 24.586ZM33.432 24.2637H33.2185V23.8327H33.6495C33.6495 23.8327 33.7582 23.8327 33.7582 23.9414V24.155L33.6495 24.2637C33.5835 24.1899 33.5097 24.1899 33.4359 24.2637H33.432Z" fill="#D9D9D9"/>
<path d="M33.6456 24.586C33.7543 24.586 33.7543 24.4772 33.8592 24.4772V23.8327C33.8592 23.724 33.7504 23.724 33.7504 23.724C33.6417 23.6152 33.4282 23.6152 33.3194 23.6152H32.8884V25.0131H33.102V24.5821H33.3156L33.6378 25.1179H33.9601L33.6378 24.5821L33.6456 24.586ZM33.432 24.2637H33.2185V23.8327H33.6495C33.6495 23.8327 33.7582 23.8327 33.7582 23.9414V24.155L33.6495 24.2637C33.5835 24.1899 33.5097 24.1899 33.4359 24.2637H33.432Z" fill="#D9D9D9"/>
<path d="M34.2902 23.2894C34.0767 23.0758 33.7544 22.8584 33.3234 22.8584C33.0011 22.8584 32.6788 22.9671 32.3565 23.2894C32.143 23.503 31.9255 23.934 31.9255 24.2562C31.9255 24.5785 32.0343 25.0095 32.3565 25.2231C32.5701 25.4367 32.8924 25.6541 33.3234 25.6541C33.6457 25.6541 33.9679 25.5454 34.2902 25.2231C34.5038 25.0095 34.7212 24.5785 34.7212 24.2562C34.7212 23.934 34.6125 23.503 34.2902 23.2894ZM34.399 24.695C34.2902 24.9086 34.1854 25.0173 33.968 25.126C33.7544 25.3396 33.5369 25.3396 33.3234 25.3396C33.1098 25.3396 32.8924 25.2309 32.6788 25.126C32.4653 25.0212 32.3565 24.8037 32.2478 24.695C32.2478 24.4815 32.2478 24.264 32.3565 24.0505C32.3565 23.8369 32.4653 23.6195 32.6788 23.5146C32.8924 23.3011 33.1098 23.1923 33.3234 23.1923C33.5369 23.1923 33.8592 23.1923 33.968 23.4059C34.1815 23.5146 34.2902 23.7282 34.399 23.9417C34.5077 24.1553 34.5077 24.4776 34.399 24.695Z" fill="#D9D9D9"/>
<path d="M32.2479 4.53496C30.5277 2.26734 28.0465 0.764651 25.3479 0.224926C22.6532 -0.310917 19.7488 0.116204 17.2676 1.51405C19.3178 6.14637 20.8243 11.5397 30.85 11.862C32.1391 11.862 33.4399 11.862 34.729 11.7533C34.729 9.05856 33.7622 6.58514 32.2479 4.53108V4.53496Z" fill="#D9D9D9"/>
<path d="M30.4227 12.6146C24.3847 12.9369 21.589 15.0958 19.7524 17.8915C18.7856 19.5029 18.0323 21.2346 17.2712 22.9548C24.5983 26.9425 34.0804 22.7412 34.7327 12.7155C33.3349 12.6068 31.9292 12.502 30.4227 12.6068V12.6146Z" fill="#D9D9D9"/>
</g>
<defs>
<clipPath id="clip0_1724_1313">
<rect width="52" height="37.3575" fill="white"/>
</clipPath>
</defs>
</svg>
