<svg width="62" height="23" viewBox="0 0 62 23" fill="none" xmlns="http://www.w3.org/2000/svg">
<g clip-path="url(#clip0_1724_1309)">
<path d="M0.000244141 1.73828H12.0362V5.06353H4.51371V7.63304H11.4819V10.8071H4.51371V13.9057H12.2737V17.4576H0.000244141V1.73828ZM13.9366 6.12156H23.6761V8.69107L18.3708 14.5103H23.9929V17.4576H13.5406V14.6614L18.6084 9.06894H13.9366V6.12156ZM36.8206 17.4576H33.0198V15.6439C32.4655 16.3996 31.9112 16.9286 31.357 17.2309C30.8027 17.5332 30.09 17.6844 29.219 17.6844C28.1104 17.6844 27.2394 17.3065 26.6059 16.6263C25.9725 15.9462 25.6557 14.8126 25.6557 13.3011V6.12156H29.6941V12.3942C29.6941 13.0744 29.8525 13.6034 30.09 13.9057C30.3276 14.208 30.6443 14.3591 31.1194 14.3591C31.5945 14.3591 31.9904 14.1324 32.3072 13.7545C32.6239 13.3767 32.7823 12.6209 32.7823 11.6385V6.12156H36.8206V17.4576ZM46.5602 6.12156H50.361V17.3821C50.361 18.0622 50.2027 18.7424 49.9651 19.4226C49.7276 20.1027 49.3316 20.5562 48.8565 21.0096C48.3814 21.3875 47.8272 21.6898 47.1145 21.8409C46.4019 21.9921 45.61 22.1432 44.6598 22.1432C42.5219 22.1432 41.0966 21.7653 40.3047 21.0852C39.5129 20.405 39.117 19.4981 39.117 18.3645V17.7599L42.997 18.2134C43.0761 18.5912 43.2345 18.8935 43.4721 19.0447C43.7888 19.2714 44.1055 19.347 44.5806 19.347C45.1349 19.347 45.61 19.1958 45.8476 18.818C46.1643 18.5157 46.2435 17.9111 46.2435 17.0798V15.3416C45.8476 15.8706 45.4517 16.2485 45.0557 16.4752C44.4223 16.853 43.7888 17.0042 43.0761 17.0042C41.6508 17.0042 40.5423 16.324 39.6712 15.0393C39.0378 14.1324 38.721 12.8476 38.721 11.3362C38.721 9.59796 39.117 8.23763 39.9088 7.25517C40.7006 6.34829 41.73 5.89484 42.997 5.89484C43.7888 5.89484 44.5014 6.04599 45.0557 6.34828C45.61 6.65058 46.0851 7.1796 46.5602 7.85976V6.12156ZM42.7594 11.5629C42.7594 12.3942 42.9178 12.9988 43.2345 13.3767C43.5512 13.7545 43.9472 13.9812 44.5014 13.9812C44.9765 13.9812 45.4516 13.7545 45.7684 13.3767C46.0851 12.9988 46.2435 12.3186 46.2435 11.4873C46.2435 10.656 46.0851 10.0514 45.6892 9.59796C45.2933 9.14452 44.8974 8.9178 44.3431 8.9178C43.7888 8.9178 43.3929 9.14452 43.0761 9.52239C42.9178 9.97583 42.7594 10.656 42.7594 11.5629ZM52.3406 6.04599H56.379V17.3065H52.3406V6.04599Z" fill="#D9D9D9"/>
<path d="M59.2294 5.29017C60.7601 5.29017 62.0009 4.10593 62.0009 2.64508C62.0009 1.18424 60.7601 0 59.2294 0C57.6988 0 56.458 1.18424 56.458 2.64508C56.458 4.10593 57.6988 5.29017 59.2294 5.29017Z" fill="#D9D9D9"/>
</g>
<defs>
<clipPath id="clip0_1724_1309">
<rect width="62.0008" height="22.1431" fill="white"/>
</clipPath>
</defs>
</svg>
